<svg xmlns:xlink="http://www.w3.org/1999/xlink" xmlns:lucid="lucid" xmlns="http://www.w3.org/2000/svg" width="640"
     height="640">
    <g transform="translate(0 0)" lucid:page-tab-id="0_0">
        <path d="M0 0h640v640H0z" stroke="#3f51b5" stroke-width="2" fill-opacity="0"/>
        <path d="M0 320v320h320zM320 640h320V320zM320 0H0v320zM640 320V0H320z" stroke="#3f51b5" stroke-width="2"
              fill="#3f51b5"/>
        <path d="M0 0h640v640H0z" stroke="#3f51b5" stroke-width="2" fill="#fff" fill-opacity="0"/>
        <use xlink:href="#a" transform="matrix(1,0,0,1,5,5) translate(65.5 341.6666666666667)"/>
        <defs>
            <path fill="#ffab40" d="M205 0l-28-72H64L36 0H1l101-248h38L239 0h-34zm-38-99l-47-123c-12 45-31 82-46 123h93"
                  id="b"/>
            <path fill="#ffab40"
                  d="M115-194c55 1 70 41 70 98S169 2 115 4C84 4 66-9 55-30l1 105H24l-1-265h31l2 30c10-21 28-34 59-34zm-8 174c40 0 45-34 45-75s-6-73-45-74c-42 0-51 32-51 76 0 43 10 73 51 73"
                  id="c"/>
            <path fill="#ffab40"
                  d="M100-194c62-1 85 37 85 99 1 63-27 99-86 99S16-35 15-95c0-66 28-99 85-99zM99-20c44 1 53-31 53-75 0-43-8-75-51-75s-53 32-53 75 10 74 51 75"
                  id="d"/>
            <path fill="#ffab40" d="M24 0v-261h32V0H24" id="e"/>
            <path fill="#ffab40"
                  d="M212-179c-10-28-35-45-73-45-59 0-87 40-87 99 0 60 29 101 89 101 43 0 62-24 78-52l27 14C228-24 195 4 139 4 59 4 22-46 18-125c-6-104 99-153 187-111 19 9 31 26 39 46"
                  id="f"/>
            <path fill="#ffab40"
                  d="M160-131c35 5 61 23 61 61C221 17 115-2 30 0v-248c76 3 177-17 177 60 0 33-19 50-47 57zm-97-11c50-1 110 9 110-42 0-47-63-36-110-37v79zm0 115c55-2 124 14 124-45 0-56-70-42-124-44v89"
                  id="g"/>
            <g id="a">
                <use transform="matrix(0.3703703703703704,0,0,0.3703703703703704,0,0)" xlink:href="#b"/>
                <use transform="matrix(0.3703703703703704,0,0,0.3703703703703704,88.8888888888889,0)" xlink:href="#c"/>
                <use transform="matrix(0.3703703703703704,0,0,0.3703703703703704,162.962962962963,0)" xlink:href="#d"/>
                <use transform="matrix(0.3703703703703704,0,0,0.3703703703703704,237.03703703703707,0)"
                     xlink:href="#e"/>
                <use transform="matrix(0.3703703703703704,0,0,0.3703703703703704,266.2962962962963,0)" xlink:href="#e"/>
                <use transform="matrix(0.3703703703703704,0,0,0.3703703703703704,295.55555555555554,0)"
                     xlink:href="#d"/>
                <use transform="matrix(0.25925925925925924,0,0,0.25925925925925924,369.6296296296296,-37.33333333333333)"
                     xlink:href="#f"/>
                <use transform="matrix(0.25925925925925924,0,0,0.25925925925925924,436.77777777777777,-37.33333333333333)"
                     xlink:href="#g"/>
            </g>
        </defs>
    </g>
</svg>